<mxfile host="app.diagrams.net" agent="Mozilla/5.0 (Windows NT 10.0; Win64; x64; rv:137.0) Gecko/20100101 Firefox/137.0" version="26.2.14">
  <diagram name="Page-1" id="SIlo6v9nQNm8KUXmktuP">
    <mxGraphModel dx="1653" dy="1107" grid="1" gridSize="10" guides="1" tooltips="1" connect="1" arrows="1" fold="1" page="1" pageScale="1" pageWidth="850" pageHeight="1100" math="0" shadow="0">
      <root>
        <mxCell id="0" />
        <mxCell id="1" parent="0" />
        <mxCell id="v2CLXZi6vXICMEOhnzI7-1" value="Provide Services" style="swimlane;whiteSpace=wrap;html=1;" vertex="1" parent="1">
          <mxGeometry x="600" y="700" width="450" height="270" as="geometry" />
        </mxCell>
        <mxCell id="v2CLXZi6vXICMEOhnzI7-2" value="Add New Certifications" style="ellipse;whiteSpace=wrap;html=1;" vertex="1" parent="v2CLXZi6vXICMEOhnzI7-1">
          <mxGeometry x="42.5" y="120" width="140" height="50" as="geometry" />
        </mxCell>
        <mxCell id="v2CLXZi6vXICMEOhnzI7-5" value="Provide Time Slots" style="ellipse;whiteSpace=wrap;html=1;" vertex="1" parent="v2CLXZi6vXICMEOhnzI7-1">
          <mxGeometry x="260" y="130" width="140" height="40" as="geometry" />
        </mxCell>
        <mxCell id="v2CLXZi6vXICMEOhnzI7-3" value="Control Performance Stats" style="ellipse;whiteSpace=wrap;html=1;" vertex="1" parent="v2CLXZi6vXICMEOhnzI7-1">
          <mxGeometry x="20" y="50" width="185" height="40" as="geometry" />
        </mxCell>
        <mxCell id="v2CLXZi6vXICMEOhnzI7-6" style="edgeStyle=orthogonalEdgeStyle;rounded=0;orthogonalLoop=1;jettySize=auto;html=1;exitX=0.5;exitY=1;exitDx=0;exitDy=0;" edge="1" parent="v2CLXZi6vXICMEOhnzI7-1" source="v2CLXZi6vXICMEOhnzI7-2" target="v2CLXZi6vXICMEOhnzI7-2">
          <mxGeometry relative="1" as="geometry" />
        </mxCell>
        <mxCell id="v2CLXZi6vXICMEOhnzI7-4" value="Customize Service" style="ellipse;whiteSpace=wrap;html=1;" vertex="1" parent="v2CLXZi6vXICMEOhnzI7-1">
          <mxGeometry x="42.5" y="200" width="140" height="40" as="geometry" />
        </mxCell>
        <mxCell id="v2CLXZi6vXICMEOhnzI7-7" value="&amp;lt;&amp;lt;extend&amp;gt;&amp;gt;" style="curved=1;endArrow=classic;html=1;rounded=0;exitX=0;exitY=0.5;exitDx=0;exitDy=0;entryX=1;entryY=0.5;entryDx=0;entryDy=0;dashed=1;dashPattern=8 8;" edge="1" parent="v2CLXZi6vXICMEOhnzI7-1" source="v2CLXZi6vXICMEOhnzI7-5" target="v2CLXZi6vXICMEOhnzI7-4">
          <mxGeometry x="0.1179" y="-7" width="50" height="50" relative="1" as="geometry">
            <mxPoint x="230" y="230" as="sourcePoint" />
            <mxPoint x="280" y="180" as="targetPoint" />
            <Array as="points">
              <mxPoint x="240" y="200" />
            </Array>
            <mxPoint as="offset" />
          </mxGeometry>
        </mxCell>
        <mxCell id="v2CLXZi6vXICMEOhnzI7-8" value="Booking Services" style="swimlane;whiteSpace=wrap;html=1;" vertex="1" parent="1">
          <mxGeometry x="940" y="430" width="440" height="200" as="geometry" />
        </mxCell>
        <mxCell id="v2CLXZi6vXICMEOhnzI7-9" value="Cancel Booked Service" style="ellipse;whiteSpace=wrap;html=1;" vertex="1" parent="v2CLXZi6vXICMEOhnzI7-8">
          <mxGeometry x="260" y="80" width="142.5" height="40" as="geometry" />
        </mxCell>
        <mxCell id="v2CLXZi6vXICMEOhnzI7-11" value="Book Service" style="ellipse;whiteSpace=wrap;html=1;" vertex="1" parent="v2CLXZi6vXICMEOhnzI7-8">
          <mxGeometry x="53.75" y="50" width="120" height="40" as="geometry" />
        </mxCell>
        <mxCell id="v2CLXZi6vXICMEOhnzI7-13" value="Request Refund" style="ellipse;whiteSpace=wrap;html=1;" vertex="1" parent="v2CLXZi6vXICMEOhnzI7-8">
          <mxGeometry x="43.75" y="130" width="140" height="40" as="geometry" />
        </mxCell>
        <mxCell id="v2CLXZi6vXICMEOhnzI7-14" value="&amp;lt;&amp;lt;include&amp;gt;&amp;gt;" style="curved=1;endArrow=classic;html=1;rounded=0;exitX=0;exitY=1;exitDx=0;exitDy=0;entryX=1;entryY=0.5;entryDx=0;entryDy=0;dashed=1;dashPattern=8 8;" edge="1" parent="v2CLXZi6vXICMEOhnzI7-8" source="v2CLXZi6vXICMEOhnzI7-9" target="v2CLXZi6vXICMEOhnzI7-13">
          <mxGeometry x="-0.1256" width="50" height="50" relative="1" as="geometry">
            <mxPoint x="182.50000000000227" y="230" as="sourcePoint" />
            <mxPoint x="280" y="180" as="targetPoint" />
            <Array as="points" />
            <mxPoint as="offset" />
          </mxGeometry>
        </mxCell>
        <mxCell id="v2CLXZi6vXICMEOhnzI7-16" value="&amp;lt;&amp;lt;extend&amp;gt;&amp;gt;" style="curved=1;endArrow=classic;html=1;rounded=0;exitX=1;exitY=0;exitDx=0;exitDy=0;entryX=0;entryY=1;entryDx=0;entryDy=0;dashed=1;dashPattern=8 8;" edge="1" parent="v2CLXZi6vXICMEOhnzI7-8" source="v2CLXZi6vXICMEOhnzI7-5" target="v2CLXZi6vXICMEOhnzI7-11">
          <mxGeometry x="0.1958" y="-44" width="50" height="50" relative="1" as="geometry">
            <mxPoint x="-187" y="-40" as="sourcePoint" />
            <mxPoint x="-100" y="-120" as="targetPoint" />
            <Array as="points">
              <mxPoint x="-70" y="240" />
            </Array>
            <mxPoint y="1" as="offset" />
          </mxGeometry>
        </mxCell>
        <mxCell id="v2CLXZi6vXICMEOhnzI7-17" value="&lt;div&gt;User&lt;/div&gt;" style="shape=umlActor;verticalLabelPosition=bottom;verticalAlign=top;html=1;outlineConnect=0;" vertex="1" parent="1">
          <mxGeometry x="550" y="290" width="40" height="80" as="geometry" />
        </mxCell>
        <mxCell id="v2CLXZi6vXICMEOhnzI7-21" value="Searching and Filtering Services" style="swimlane;whiteSpace=wrap;html=1;" vertex="1" parent="1">
          <mxGeometry x="710" y="90" width="500" height="230" as="geometry" />
        </mxCell>
        <mxCell id="v2CLXZi6vXICMEOhnzI7-22" value="Filter Services" style="ellipse;whiteSpace=wrap;html=1;" vertex="1" parent="v2CLXZi6vXICMEOhnzI7-21">
          <mxGeometry x="315" y="50" width="142.5" height="40" as="geometry" />
        </mxCell>
        <mxCell id="v2CLXZi6vXICMEOhnzI7-23" value="Search for Services on a Map" style="ellipse;whiteSpace=wrap;html=1;" vertex="1" parent="v2CLXZi6vXICMEOhnzI7-21">
          <mxGeometry x="155" y="160" width="190" height="40" as="geometry" />
        </mxCell>
        <mxCell id="v2CLXZi6vXICMEOhnzI7-24" value="Show Service History" style="ellipse;whiteSpace=wrap;html=1;" vertex="1" parent="v2CLXZi6vXICMEOhnzI7-21">
          <mxGeometry x="40" y="50" width="140" height="40" as="geometry" />
        </mxCell>
        <mxCell id="v2CLXZi6vXICMEOhnzI7-25" value="&amp;lt;&amp;lt;extend&amp;gt;&amp;gt;" style="curved=1;endArrow=classic;html=1;rounded=0;exitX=0;exitY=0.5;exitDx=0;exitDy=0;entryX=1;entryY=0.5;entryDx=0;entryDy=0;dashed=1;dashPattern=8 8;" edge="1" parent="v2CLXZi6vXICMEOhnzI7-21" source="v2CLXZi6vXICMEOhnzI7-22" target="v2CLXZi6vXICMEOhnzI7-24">
          <mxGeometry x="-0.0564" y="1" width="50" height="50" relative="1" as="geometry">
            <mxPoint x="182.50000000000227" y="230" as="sourcePoint" />
            <mxPoint x="280" y="180" as="targetPoint" />
            <Array as="points" />
            <mxPoint as="offset" />
          </mxGeometry>
        </mxCell>
        <mxCell id="v2CLXZi6vXICMEOhnzI7-33" value="&amp;lt;&amp;lt;include&amp;gt;&amp;gt;" style="curved=1;endArrow=classic;html=1;rounded=0;exitX=0.5;exitY=0;exitDx=0;exitDy=0;entryX=0.5;entryY=1;entryDx=0;entryDy=0;dashed=1;dashPattern=8 8;" edge="1" parent="v2CLXZi6vXICMEOhnzI7-21" source="v2CLXZi6vXICMEOhnzI7-23" target="v2CLXZi6vXICMEOhnzI7-22">
          <mxGeometry x="-0.1429" width="50" height="50" relative="1" as="geometry">
            <mxPoint x="100" y="128.89" as="sourcePoint" />
            <mxPoint x="185" y="128.89" as="targetPoint" />
            <Array as="points" />
            <mxPoint as="offset" />
          </mxGeometry>
        </mxCell>
        <mxCell id="v2CLXZi6vXICMEOhnzI7-26" value="" style="curved=1;endArrow=classic;html=1;rounded=0;entryX=0;entryY=0.5;entryDx=0;entryDy=0;" edge="1" parent="1" target="v2CLXZi6vXICMEOhnzI7-23">
          <mxGeometry width="50" height="50" relative="1" as="geometry">
            <mxPoint x="600" y="320" as="sourcePoint" />
            <mxPoint x="930" y="240" as="targetPoint" />
            <Array as="points" />
          </mxGeometry>
        </mxCell>
        <mxCell id="v2CLXZi6vXICMEOhnzI7-27" value="" style="curved=1;endArrow=classic;html=1;rounded=0;entryX=0;entryY=1;entryDx=0;entryDy=0;" edge="1" parent="1" target="v2CLXZi6vXICMEOhnzI7-22">
          <mxGeometry width="50" height="50" relative="1" as="geometry">
            <mxPoint x="600" y="310" as="sourcePoint" />
            <mxPoint x="870" y="840" as="targetPoint" />
            <Array as="points" />
          </mxGeometry>
        </mxCell>
        <mxCell id="v2CLXZi6vXICMEOhnzI7-34" value="&amp;lt;&amp;lt;extend&amp;gt;&amp;gt;" style="curved=1;endArrow=classic;html=1;rounded=0;entryX=0.5;entryY=0;entryDx=0;entryDy=0;dashed=1;dashPattern=8 8;exitX=0.5;exitY=1;exitDx=0;exitDy=0;" edge="1" parent="1" source="v2CLXZi6vXICMEOhnzI7-23" target="v2CLXZi6vXICMEOhnzI7-11">
          <mxGeometry x="-0.0564" y="1" width="50" height="50" relative="1" as="geometry">
            <mxPoint x="940" y="520" as="sourcePoint" />
            <mxPoint x="1120" y="690" as="targetPoint" />
            <Array as="points" />
            <mxPoint as="offset" />
          </mxGeometry>
        </mxCell>
        <mxCell id="v2CLXZi6vXICMEOhnzI7-37" value="" style="curved=1;endArrow=classic;html=1;rounded=0;entryX=0;entryY=0;entryDx=0;entryDy=0;" edge="1" parent="1" target="v2CLXZi6vXICMEOhnzI7-11">
          <mxGeometry width="50" height="50" relative="1" as="geometry">
            <mxPoint x="600" y="330" as="sourcePoint" />
            <mxPoint x="790" y="440" as="targetPoint" />
            <Array as="points">
              <mxPoint x="770" y="460" />
            </Array>
          </mxGeometry>
        </mxCell>
        <mxCell id="v2CLXZi6vXICMEOhnzI7-38" value="" style="curved=1;endArrow=classic;html=1;rounded=0;entryX=0;entryY=0.5;entryDx=0;entryDy=0;" edge="1" parent="1" target="v2CLXZi6vXICMEOhnzI7-9">
          <mxGeometry width="50" height="50" relative="1" as="geometry">
            <mxPoint x="600" y="340" as="sourcePoint" />
            <mxPoint x="981" y="536" as="targetPoint" />
            <Array as="points">
              <mxPoint x="850" y="570" />
            </Array>
          </mxGeometry>
        </mxCell>
        <mxCell id="v2CLXZi6vXICMEOhnzI7-40" value="" style="curved=1;endArrow=classic;html=1;rounded=0;entryX=0;entryY=0.5;entryDx=0;entryDy=0;" edge="1" parent="1" target="v2CLXZi6vXICMEOhnzI7-13">
          <mxGeometry width="50" height="50" relative="1" as="geometry">
            <mxPoint x="600" y="350" as="sourcePoint" />
            <mxPoint x="1140" y="560" as="targetPoint" />
            <Array as="points">
              <mxPoint x="840" y="590" />
            </Array>
          </mxGeometry>
        </mxCell>
        <mxCell id="v2CLXZi6vXICMEOhnzI7-41" value="&lt;div&gt;Business&lt;/div&gt;&lt;div&gt;&lt;br&gt;&lt;/div&gt;" style="shape=umlActor;verticalLabelPosition=bottom;verticalAlign=top;html=1;outlineConnect=0;" vertex="1" parent="1">
          <mxGeometry x="330" y="810" width="40" height="80" as="geometry" />
        </mxCell>
        <mxCell id="v2CLXZi6vXICMEOhnzI7-42" value="Registered User" style="shape=umlActor;verticalLabelPosition=bottom;verticalAlign=top;html=1;outlineConnect=0;" vertex="1" parent="1">
          <mxGeometry x="300" y="290" width="40" height="80" as="geometry" />
        </mxCell>
        <mxCell id="v2CLXZi6vXICMEOhnzI7-44" value="" style="curved=1;endArrow=classic;html=1;rounded=0;entryX=0;entryY=0.5;entryDx=0;entryDy=0;" edge="1" parent="1" target="v2CLXZi6vXICMEOhnzI7-3">
          <mxGeometry width="50" height="50" relative="1" as="geometry">
            <mxPoint x="380" y="840" as="sourcePoint" />
            <mxPoint x="714" y="730" as="targetPoint" />
            <Array as="points" />
          </mxGeometry>
        </mxCell>
        <mxCell id="v2CLXZi6vXICMEOhnzI7-45" value="" style="curved=1;endArrow=classic;html=1;rounded=0;entryX=0;entryY=0.5;entryDx=0;entryDy=0;" edge="1" parent="1" target="v2CLXZi6vXICMEOhnzI7-2">
          <mxGeometry width="50" height="50" relative="1" as="geometry">
            <mxPoint x="380" y="850" as="sourcePoint" />
            <mxPoint x="580" y="790" as="targetPoint" />
            <Array as="points" />
          </mxGeometry>
        </mxCell>
        <mxCell id="v2CLXZi6vXICMEOhnzI7-46" value="" style="curved=1;endArrow=classic;html=1;rounded=0;entryX=0;entryY=0.5;entryDx=0;entryDy=0;" edge="1" parent="1" target="v2CLXZi6vXICMEOhnzI7-4">
          <mxGeometry width="50" height="50" relative="1" as="geometry">
            <mxPoint x="380" y="860" as="sourcePoint" />
            <mxPoint x="590" y="865" as="targetPoint" />
            <Array as="points" />
          </mxGeometry>
        </mxCell>
        <mxCell id="v2CLXZi6vXICMEOhnzI7-47" value="" style="curved=1;endArrow=classic;html=1;rounded=0;entryX=0.5;entryY=1;entryDx=0;entryDy=0;" edge="1" parent="1" target="v2CLXZi6vXICMEOhnzI7-5">
          <mxGeometry width="50" height="50" relative="1" as="geometry">
            <mxPoint x="380" y="870" as="sourcePoint" />
            <mxPoint x="603" y="940" as="targetPoint" />
            <Array as="points">
              <mxPoint x="670" y="1100" />
            </Array>
          </mxGeometry>
        </mxCell>
        <mxCell id="v2CLXZi6vXICMEOhnzI7-48" value="Feedback" style="swimlane;whiteSpace=wrap;html=1;" vertex="1" parent="1">
          <mxGeometry x="420" y="450" width="230" height="200" as="geometry" />
        </mxCell>
        <mxCell id="v2CLXZi6vXICMEOhnzI7-49" value="Respond to User Reviews" style="ellipse;whiteSpace=wrap;html=1;" vertex="1" parent="v2CLXZi6vXICMEOhnzI7-48">
          <mxGeometry x="36.88" y="120" width="156.25" height="50" as="geometry" />
        </mxCell>
        <mxCell id="v2CLXZi6vXICMEOhnzI7-50" value="Review Service" style="ellipse;whiteSpace=wrap;html=1;" vertex="1" parent="v2CLXZi6vXICMEOhnzI7-48">
          <mxGeometry x="43.75" y="50" width="142.5" height="40" as="geometry" />
        </mxCell>
        <mxCell id="v2CLXZi6vXICMEOhnzI7-52" value="" style="curved=1;endArrow=classic;html=1;rounded=0;entryX=0;entryY=0.5;entryDx=0;entryDy=0;" edge="1" parent="1" target="v2CLXZi6vXICMEOhnzI7-50">
          <mxGeometry width="50" height="50" relative="1" as="geometry">
            <mxPoint x="330" y="400" as="sourcePoint" />
            <mxPoint x="510" y="390" as="targetPoint" />
            <Array as="points">
              <mxPoint x="400" y="480" />
            </Array>
          </mxGeometry>
        </mxCell>
        <mxCell id="v2CLXZi6vXICMEOhnzI7-53" value="" style="curved=1;endArrow=classic;html=1;rounded=0;entryX=0;entryY=0.5;entryDx=0;entryDy=0;" edge="1" parent="1" target="v2CLXZi6vXICMEOhnzI7-24">
          <mxGeometry width="50" height="50" relative="1" as="geometry">
            <mxPoint x="340" y="280" as="sourcePoint" />
            <mxPoint x="494" y="510" as="targetPoint" />
            <Array as="points">
              <mxPoint x="520" y="130" />
            </Array>
          </mxGeometry>
        </mxCell>
        <mxCell id="v2CLXZi6vXICMEOhnzI7-54" value="" style="endArrow=block;endSize=16;endFill=0;html=1;rounded=0;" edge="1" parent="1">
          <mxGeometry width="160" relative="1" as="geometry">
            <mxPoint x="350" y="329" as="sourcePoint" />
            <mxPoint x="540" y="329" as="targetPoint" />
          </mxGeometry>
        </mxCell>
        <mxCell id="v2CLXZi6vXICMEOhnzI7-55" value="" style="curved=1;endArrow=classic;html=1;rounded=0;entryX=0;entryY=1;entryDx=0;entryDy=0;" edge="1" parent="1" target="v2CLXZi6vXICMEOhnzI7-49">
          <mxGeometry width="50" height="50" relative="1" as="geometry">
            <mxPoint x="380" y="830" as="sourcePoint" />
            <mxPoint x="570" y="770" as="targetPoint" />
            <Array as="points">
              <mxPoint x="490" y="760" />
            </Array>
          </mxGeometry>
        </mxCell>
      </root>
    </mxGraphModel>
  </diagram>
</mxfile>
